<svg viewBox="0 0 400 480" xmlns="http://www.w3.org/2000/svg">
  <defs>
    <filter id="af-glow" x="-15%" y="-15%" width="130%" height="130%">
      <feGaussianBlur stdDeviation="2.5" result="blur"/>
      <feMerge><feMergeNode in="blur"/><feMergeNode in="SourceGraphic"/></feMerge>
    </filter>
    <linearGradient id="af-grad" x1="0%" y1="0%" x2="70%" y2="100%">
      <stop offset="0%" style="stop-color:#1e3a5f"/>
      <stop offset="100%" style="stop-color:#0d1527"/>
    </linearGradient>
    <clipPath id="af-clip">
      <path d="M287.9,253.29 L307.63,266.26 L307.99,269.76 L315.45,275.8 L313.05,283.25 L316.69,288.87 L315.37,298.81 L321.25,309.87 L317.11,313.38 L301.47,318.36 L291.31,317.14 L287.05,304.44 L271.45,297.93 L265.62,286.94 L264.17,274.73 L271.51,267.84 L269.78,254.41 L287.9,253.29 Z"/>
      <path d="M264.17,274.73 L265.62,286.94 L271.45,297.93 L261.02,299.06 L259.14,318.79 L265.6,321.12 L266.04,327.64 L262.06,327.59 L252.85,317.68 L249.68,319.58 L237.74,313.71 L226.81,314.51 L224.59,291.59 L216.08,289.49 L210.49,295.81 L202.46,296.29 L196.5,283.06 L174.95,282.53 L182.32,274.74 L187.43,277.58 L194.83,268.91 L196.92,258.07 L203.32,250.12 L208.02,222.17 L212.83,217.16 L228.11,223.21 L230.38,219.1 L244.98,215.8 L253.95,215.93 L259.43,221.65 L266.12,219.76 L271.94,226.35 L271.62,233.42 L273.71,234.23 L266.95,243.94 L262.53,264.7 L264.17,274.73 Z"/>
      <path d="M327.84,257.72 L324.76,252.74 L324.7,230.73 L330.67,221.97 L345.41,217.34 L366.08,190.45 L366.13,178.62 L377.38,174.91 L374.47,191.98 L364.29,215.3 L327.84,257.72 Z"/>
      <path d="M315.45,275.8 L307.99,269.76 L307.63,266.26 L287.9,253.29 L287.85,246.89 L293.79,236.04 L288.43,221.88 L295.15,214.29 L299.63,220.68 L309.83,225.81 L317.31,226.88 L323.6,221.84 L329.25,223.88 L324.7,230.73 L324.76,252.74 L327.84,257.72 L320.97,263.09 L315.45,275.8 Z"/>
      <path d="M239.35,197.84 L233.59,193.46 L234.08,186.6 L225.67,171.51 L231.33,152.83 L235.81,153.25 L235.62,126.73 L241.6,126.72 L241.6,114.65 L303.3,114.65 L306.51,135.11 L311.33,138.83 L303.23,145.12 L300.21,165.62 L289.74,183.34 L288.27,195.09 L284.28,173.98 L281.87,173.56 L278.38,175.22 L280.08,180.61 L274.63,188.29 L267.58,185.39 L262.23,190.78 L250.71,190.36 L245.71,184.66 L241.96,185.49 L239.19,193.68 L235.81,195.48 L239.35,197.84 Z"/>
      <path d="M235.56,129.27 L235.81,153.25 L231.33,152.83 L225.67,171.51 L230.49,180.24 L220.8,190.31 L209.42,193.29 L205.02,199.88 L191.05,202.72 L189.5,194.42 L184.16,189.86 L185.29,187.01 L192.03,187.25 L187.5,167.02 L184.16,166.89 L182.01,160.76 L184.26,152.8 L190.89,147.11 L194.3,124.39 L190.1,118.83 L188.83,109.44 L194.08,106.14 L235.56,129.27 Z"/>
      <path d="M196.59,420.18 L199.08,417.19 L207.62,423.01 L215.05,419.48 L215.06,397.17 L220.23,409.62 L223.95,409.0 L232.82,400.19 L245.06,401.51 L252.62,389.96 L264.65,381.0 L273.8,381.97 L277.64,394.76 L277.16,403.67 L273.03,402.99 L271.17,409.11 L274.27,412.38 L282.32,409.1 L279.06,421.24 L258.34,445.52 L245.66,452.6 L228.99,452.12 L215.97,457.74 L207.16,453.76 L204.81,444.55 L206.35,438.81 L196.59,420.18 Z"/>
      <path d="M262.29,422.47 L257.59,421.84 L252.0,428.03 L257.76,432.07 L264.09,424.29 L262.29,422.47 Z"/>
      <path d="M262.29,422.47 L264.09,424.29 L257.76,432.07 L252.0,428.03 L257.59,421.84 L262.29,422.47 Z"/>
      <path d="M273.8,381.97 L257.31,377.34 L242.97,354.69 L252.23,355.91 L262.13,344.46 L269.03,341.23 L282.41,348.51 L281.43,370.21 L273.8,381.97 Z"/>
      <path d="M264.65,381.0 L252.62,389.96 L245.06,401.51 L232.82,400.19 L223.95,409.0 L220.23,409.62 L215.06,397.17 L215.06,379.54 L220.18,379.33 L220.34,357.81 L242.97,354.69 L257.31,377.34 L264.65,381.0 Z"/>
      <path d="M215.06,397.17 L215.05,419.48 L207.62,423.01 L199.08,417.19 L196.59,420.18 L190.69,411.2 L185.74,381.12 L172.62,352.07 L181.6,350.07 L184.7,352.8 L206.57,352.12 L222.76,355.87 L236.58,352.03 L242.0,353.74 L234.21,357.98 L232.22,355.49 L220.34,357.81 L220.18,379.33 L215.06,379.54 L215.06,397.17 Z"/>
      <path d="M24.69,165.43 L19.95,158.57 L27.77,148.15 L35.8,147.28 L48.31,159.25 L51.73,172.39 L24.88,172.74 L24.02,168.11 L39.61,165.97 L24.69,165.43 Z"/>
      <path d="M51.73,172.39 L48.31,159.25 L50.94,154.59 L82.8,153.91 L78.04,96.79 L86.0,96.68 L127.96,128.59 L128.02,132.43 L133.79,131.84 L133.81,145.75 L130.52,153.51 L106.05,157.1 L90.77,166.17 L84.45,176.79 L83.5,184.9 L69.84,185.9 L64.14,173.2 L58.74,176.0 L51.73,172.39 Z"/>
      <path d="M22.87,120.7 L44.37,118.72 L44.65,106.89 L49.53,106.35 L49.36,90.89 L66.43,91.21 L66.44,82.06 L86.0,96.68 L78.04,96.79 L82.8,153.91 L50.94,154.59 L48.31,159.25 L35.8,147.28 L25.99,150.08 L26.96,126.18 L22.87,120.7 Z"/>
      <path d="M125.6,209.74 L121.3,210.45 L120.26,192.41 L115.62,184.3 L119.13,177.79 L126.41,173.64 L131.34,182.7 L125.76,196.16 L125.6,209.74 Z"/>
      <path d="M188.83,109.44 L190.1,118.83 L194.3,124.39 L190.89,147.11 L184.26,152.8 L182.01,160.76 L184.16,166.89 L187.5,167.02 L185.34,172.14 L179.64,165.42 L175.57,168.8 L168.75,166.68 L158.48,170.07 L139.9,163.79 L132.96,165.81 L130.38,177.11 L126.41,173.64 L122.8,175.42 L122.92,171.29 L116.93,169.92 L113.55,157.37 L130.52,153.51 L133.81,145.75 L133.79,131.84 L174.0,105.76 L185.15,111.69 L188.83,109.44 Z"/>
      <path d="M125.6,209.74 L125.76,196.16 L130.87,186.76 L130.74,171.72 L134.32,164.51 L158.48,170.07 L168.75,166.68 L175.57,168.8 L179.64,165.42 L187.4,174.55 L172.68,205.38 L169.11,207.41 L164.22,205.03 L159.61,208.62 L155.8,218.72 L142.27,221.8 L134.09,209.67 L125.6,209.74 Z"/>
      <path d="M186.98,169.87 L192.03,187.25 L185.29,187.01 L184.16,189.86 L191.87,201.08 L187.19,209.94 L186.89,218.96 L194.09,229.35 L194.49,237.11 L186.16,234.09 L161.78,233.75 L162.54,228.99 L155.74,220.39 L157.14,214.45 L164.22,205.03 L169.11,207.41 L172.68,205.38 L186.56,177.64 L186.98,169.87 Z"/>
      <path d="M116.28,181.12 L120.26,192.41 L121.3,210.45 L117.11,211.74 L111.34,182.87 L116.28,181.12 Z"/>
      <path d="M111.72,180.99 L117.11,211.74 L101.38,219.1 L96.75,217.38 L94.73,209.79 L98.28,197.9 L96.31,181.33 L111.72,180.99 Z"/>
      <path d="M69.84,185.9 L79.33,183.98 L89.08,189.49 L96.9,189.3 L98.28,197.9 L94.73,209.79 L96.75,217.38 L87.42,216.33 L71.5,221.19 L72.24,213.07 L66.87,208.48 L70.87,195.75 L69.84,185.9 Z"/>
      <path d="M40.36,171.52 L58.74,176.0 L64.14,173.2 L69.84,185.9 L70.87,195.75 L68.54,201.11 L63.71,203.37 L60.87,195.96 L56.97,197.12 L53.79,186.87 L46.99,188.13 L42.72,193.77 L32.92,180.86 L40.14,176.2 L40.36,171.52 Z"/>
      <path d="M24.88,172.74 L40.36,171.52 L40.14,176.2 L32.92,180.86 L24.88,172.74 Z"/>
      <path d="M67.72,201.12 L66.87,208.48 L72.24,213.07 L71.5,221.19 L52.12,206.56 L58.4,196.77 L60.87,195.96 L63.71,203.37 L67.72,201.12 Z"/>
      <path d="M42.72,193.77 L46.99,188.13 L53.79,186.87 L58.4,196.77 L52.12,206.56 L44.26,200.44 L42.72,193.77 Z"/>
      <path d="M83.5,184.9 L89.34,167.64 L106.05,157.1 L113.55,157.37 L116.93,169.92 L122.92,171.29 L121.67,177.23 L116.28,181.12 L96.31,181.33 L96.9,189.3 L89.08,189.49 L83.5,184.9 Z"/>
      <path d="M253.95,215.93 L238.53,216.69 L230.38,219.1 L228.11,223.21 L212.83,217.16 L207.56,226.38 L200.69,225.03 L194.87,233.85 L186.79,214.62 L191.05,202.72 L205.02,199.88 L209.42,193.29 L220.8,190.31 L230.49,180.24 L234.08,186.6 L233.59,193.46 L253.95,215.93 Z"/>
      <path d="M207.56,226.38 L203.32,250.12 L196.92,258.07 L194.83,268.91 L187.43,277.58 L177.23,274.36 L173.56,277.98 L169.29,271.59 L173.25,268.25 L171.29,264.26 L176.99,259.32 L184.36,262.48 L186.61,255.61 L183.59,247.32 L185.84,240.32 L180.67,239.61 L179.59,233.86 L194.49,237.11 L200.69,225.03 L207.56,226.38 Z"/>
      <path d="M170.24,233.89 L178.95,233.53 L180.67,239.61 L185.84,240.32 L183.59,247.32 L186.61,255.61 L184.36,262.48 L176.99,259.32 L171.29,264.26 L173.25,268.25 L169.29,271.59 L157.35,254.26 L160.96,241.45 L170.28,241.16 L170.24,233.89 Z"/>
      <path d="M161.78,233.75 L170.24,233.89 L170.28,241.16 L160.96,241.45 L161.78,233.75 Z"/>
      <path d="M271.45,297.93 L284.4,306.01 L284.79,322.67 L281.58,330.39 L284.31,331.95 L268.53,336.93 L269.03,341.23 L262.13,344.46 L252.23,355.91 L232.32,353.4 L225.42,344.69 L225.66,325.47 L236.48,325.54 L235.94,313.56 L245.51,318.74 L252.85,317.68 L262.06,327.59 L266.04,327.64 L265.6,321.12 L259.14,318.79 L259.54,302.91 L262.42,298.34 L271.45,297.93 Z"/>
      <path d="M281.95,303.31 L287.05,304.44 L289.86,308.93 L291.31,329.59 L297.17,335.81 L297.61,343.58 L293.78,349.04 L290.38,345.31 L290.79,335.83 L281.58,330.39 L285.73,311.13 L281.95,303.31 Z"/>
      <path d="M291.31,317.14 L306.45,317.44 L321.25,309.87 L323.63,336.3 L316.75,348.56 L306.14,353.79 L292.49,367.06 L296.53,380.99 L295.99,393.27 L283.27,400.73 L280.99,402.97 L282.32,409.1 L278.37,409.05 L273.8,381.97 L281.43,370.21 L282.41,348.51 L269.36,343.48 L268.53,336.93 L284.31,331.95 L290.79,335.83 L290.38,345.31 L293.78,349.04 L297.61,343.58 L297.17,335.81 L291.31,329.59 L291.31,317.14 Z"/>
      <path d="M278.37,409.05 L274.27,412.38 L271.17,409.11 L273.03,402.99 L277.16,403.67 L278.37,409.05 Z"/>
      <path d="M179.18,276.43 L174.95,282.53 L173.56,277.98 L177.23,274.36 L179.18,276.43 Z"/>
      <path d="M175.68,284.4 L196.5,283.06 L202.46,296.29 L210.49,295.81 L216.08,289.49 L224.59,291.59 L226.81,314.51 L236.49,315.43 L236.48,325.54 L225.66,325.47 L225.42,344.69 L232.32,353.4 L222.76,355.87 L206.57,352.12 L184.7,352.8 L181.6,350.07 L172.62,352.07 L174.91,334.84 L183.04,315.8 L175.68,284.4 Z"/>
      <path d="M270.04,262.13 L271.51,267.84 L264.17,274.73 L262.53,264.7 L270.04,262.13 Z"/>
      <path d="M369.23,322.88 L373.56,342.43 L369.9,342.45 L370.43,349.49 L356.5,398.22 L347.73,402.2 L340.61,398.5 L337.0,385.14 L337.45,376.44 L342.81,364.96 L340.21,352.72 L342.72,345.51 L352.42,342.88 L359.67,335.71 L367.41,320.29 L369.23,322.88 Z"/>
      <path d="M24.69,165.43 L39.61,165.97 L24.02,168.11 L24.69,165.43 Z"/>
      <path d="M160.91,64.47 L158.69,53.62 L151.19,46.13 L150.73,41.58 L153.93,38.21 L155.39,24.36 L161.05,21.93 L164.69,22.65 L164.54,25.71 L168.95,23.48 L166.72,27.6 L167.8,37.13 L164.38,40.17 L171.34,47.38 L171.05,52.02 L163.34,58.01 L163.44,63.07 L160.91,64.47 Z"/>
      <path d="M66.44,82.06 L66.49,73.33 L84.34,66.32 L92.41,60.91 L92.63,56.44 L104.8,52.66 L100.32,35.11 L105.32,31.8 L119.23,26.42 L155.39,24.36 L153.93,38.21 L150.73,41.58 L151.19,46.13 L158.69,53.62 L162.59,69.8 L160.06,89.92 L165.18,100.28 L167.61,99.17 L174.0,105.76 L141.12,129.14 L128.02,132.43 L127.96,128.59 L66.44,82.06 Z"/>
      <path d="M301.03,160.43 L303.23,145.12 L311.33,138.83 L315.78,151.36 L335.62,170.83 L331.83,171.79 L319.74,159.84 L308.71,157.18 L307.09,161.69 L301.03,160.43 Z"/>
      <path d="M100.32,35.11 L104.8,52.66 L92.63,56.44 L92.41,60.91 L84.34,66.32 L66.49,73.33 L65.87,83.72 L52.36,85.15 L46.59,97.92 L39.37,104.44 L34.9,117.67 L23.09,118.14 L36.51,88.95 L61.86,66.73 L60.56,59.21 L66.58,46.75 L75.65,41.5 L80.76,31.53 L100.32,35.11 Z"/>
      <path d="M303.3,114.65 L241.6,114.65 L240.04,66.06 L242.46,56.85 L261.95,61.07 L272.68,56.93 L277.79,60.69 L289.78,58.96 L293.2,69.34 L289.2,79.48 L279.67,67.77 L297.2,103.01 L296.34,107.99 L303.3,114.65 Z"/>
      <path d="M241.6,114.65 L241.6,126.72 L235.62,126.73 L235.56,129.27 L194.08,106.14 L185.15,111.69 L167.61,99.17 L165.18,100.28 L160.06,89.92 L163.34,58.01 L171.05,52.02 L171.34,47.38 L190.88,52.64 L193.31,58.01 L210.85,64.72 L215.88,60.37 L214.67,55.74 L220.04,49.98 L241.19,54.85 L241.6,114.65 Z"/>
      <path d="M360.1,199.21 L345.41,217.34 L338.64,217.6 L329.25,223.88 L323.6,221.84 L317.31,226.88 L299.63,220.68 L292.08,207.72 L282.96,200.52 L287.49,196.93 L289.74,183.34 L298.09,171.57 L301.03,160.43 L307.09,161.69 L308.71,157.18 L319.74,159.84 L327.91,166.29 L331.83,171.79 L328.73,180.79 L334.04,181.54 L332.91,183.68 L338.73,192.07 L360.1,199.21 Z"/>
      <path d="M331.83,171.79 L336.85,172.7 L334.04,181.54 L328.73,180.79 L331.83,171.79 Z"/>
      <path d="M287.9,253.29 L265.41,255.65 L266.95,243.94 L273.71,234.23 L271.62,233.42 L274.08,224.71 L285.23,224.66 L288.43,221.88 L290.89,226.07 L293.79,236.04 L287.85,246.89 L287.9,253.29 Z"/>
      <path d="M269.78,254.41 L271.54,261.37 L262.53,264.7 L263.92,257.34 L269.78,254.41 Z"/>
    </clipPath>
  </defs>

  <!-- Country fills -->
  <path d="M287.9,253.29 L307.63,266.26 L307.99,269.76 L315.45,275.8 L313.05,283.25 L316.69,288.87 L315.37,298.81 L321.25,309.87 L317.11,313.38 L301.47,318.36 L291.31,317.14 L287.05,304.44 L271.45,297.93 L265.62,286.94 L264.17,274.73 L271.51,267.84 L269.78,254.41 L287.9,253.29 Z" fill="url(#af-grad)" stroke="rgba(59,130,246,0.35)" stroke-width="0.8" stroke-linejoin="round"/>
  <path d="M264.17,274.73 L265.62,286.94 L271.45,297.93 L261.02,299.06 L259.14,318.79 L265.6,321.12 L266.04,327.64 L262.06,327.59 L252.85,317.68 L249.68,319.58 L237.74,313.71 L226.81,314.51 L224.59,291.59 L216.08,289.49 L210.49,295.81 L202.46,296.29 L196.5,283.06 L174.95,282.53 L182.32,274.74 L187.43,277.58 L194.83,268.91 L196.92,258.07 L203.32,250.12 L208.02,222.17 L212.83,217.16 L228.11,223.21 L230.38,219.1 L244.98,215.8 L253.95,215.93 L259.43,221.65 L266.12,219.76 L271.94,226.35 L271.62,233.42 L273.71,234.23 L266.95,243.94 L262.53,264.7 L264.17,274.73 Z" fill="url(#af-grad)" stroke="rgba(59,130,246,0.35)" stroke-width="0.8" stroke-linejoin="round"/>
  <path d="M327.84,257.72 L324.76,252.74 L324.7,230.73 L330.67,221.97 L345.41,217.34 L366.08,190.45 L366.13,178.62 L377.38,174.91 L374.47,191.98 L364.29,215.3 L327.84,257.72 Z" fill="url(#af-grad)" stroke="rgba(59,130,246,0.35)" stroke-width="0.8" stroke-linejoin="round"/>
  <path d="M315.45,275.8 L307.99,269.76 L307.63,266.26 L287.9,253.29 L287.85,246.89 L293.79,236.04 L288.43,221.88 L295.15,214.29 L299.63,220.68 L309.83,225.81 L317.31,226.88 L323.6,221.84 L329.25,223.88 L324.7,230.73 L324.76,252.74 L327.84,257.72 L320.97,263.09 L315.45,275.8 Z" fill="url(#af-grad)" stroke="rgba(59,130,246,0.35)" stroke-width="0.8" stroke-linejoin="round"/>
  <path d="M239.35,197.84 L233.59,193.46 L234.08,186.6 L225.67,171.51 L231.33,152.83 L235.81,153.25 L235.62,126.73 L241.6,126.72 L241.6,114.65 L303.3,114.65 L306.51,135.11 L311.33,138.83 L303.23,145.12 L300.21,165.62 L289.74,183.34 L288.27,195.09 L284.28,173.98 L281.87,173.56 L278.38,175.22 L280.08,180.61 L274.63,188.29 L267.58,185.39 L262.23,190.78 L250.71,190.36 L245.71,184.66 L241.96,185.49 L239.19,193.68 L235.81,195.48 L239.35,197.84 Z" fill="url(#af-grad)" stroke="rgba(59,130,246,0.35)" stroke-width="0.8" stroke-linejoin="round"/>
  <path d="M235.56,129.27 L235.81,153.25 L231.33,152.83 L225.67,171.51 L230.49,180.24 L220.8,190.31 L209.42,193.29 L205.02,199.88 L191.05,202.72 L189.5,194.42 L184.16,189.86 L185.29,187.01 L192.03,187.25 L187.5,167.02 L184.16,166.89 L182.01,160.76 L184.26,152.8 L190.89,147.11 L194.3,124.39 L190.1,118.83 L188.83,109.44 L194.08,106.14 L235.56,129.27 Z" fill="url(#af-grad)" stroke="rgba(59,130,246,0.35)" stroke-width="0.8" stroke-linejoin="round"/>
  <path d="M196.59,420.18 L199.08,417.19 L207.62,423.01 L215.05,419.48 L215.06,397.17 L220.23,409.62 L223.95,409.0 L232.82,400.19 L245.06,401.51 L252.62,389.96 L264.65,381.0 L273.8,381.97 L277.64,394.76 L277.16,403.67 L273.03,402.99 L271.17,409.11 L274.27,412.38 L282.32,409.1 L279.06,421.24 L258.34,445.52 L245.66,452.6 L228.99,452.12 L215.97,457.74 L207.16,453.76 L204.81,444.55 L206.35,438.81 L196.59,420.18 Z" fill="url(#af-grad)" stroke="rgba(59,130,246,0.35)" stroke-width="0.8" stroke-linejoin="round"/>
  <path d="M262.29,422.47 L257.59,421.84 L252.0,428.03 L257.76,432.07 L264.09,424.29 L262.29,422.47 Z" fill="url(#af-grad)" stroke="rgba(59,130,246,0.35)" stroke-width="0.8" stroke-linejoin="round"/>
  <path d="M262.29,422.47 L264.09,424.29 L257.76,432.07 L252.0,428.03 L257.59,421.84 L262.29,422.47 Z" fill="url(#af-grad)" stroke="rgba(59,130,246,0.35)" stroke-width="0.8" stroke-linejoin="round"/>
  <path d="M273.8,381.97 L257.31,377.34 L242.97,354.69 L252.23,355.91 L262.13,344.46 L269.03,341.23 L282.41,348.51 L281.43,370.21 L273.8,381.97 Z" fill="url(#af-grad)" stroke="rgba(59,130,246,0.35)" stroke-width="0.8" stroke-linejoin="round"/>
  <path d="M264.65,381.0 L252.62,389.96 L245.06,401.51 L232.82,400.19 L223.95,409.0 L220.23,409.62 L215.06,397.17 L215.06,379.54 L220.18,379.33 L220.34,357.81 L242.97,354.69 L257.31,377.34 L264.65,381.0 Z" fill="url(#af-grad)" stroke="rgba(59,130,246,0.35)" stroke-width="0.8" stroke-linejoin="round"/>
  <path d="M215.06,397.17 L215.05,419.48 L207.62,423.01 L199.08,417.19 L196.59,420.18 L190.69,411.2 L185.74,381.12 L172.62,352.07 L181.6,350.07 L184.7,352.8 L206.57,352.12 L222.76,355.87 L236.58,352.03 L242.0,353.74 L234.21,357.98 L232.22,355.49 L220.34,357.81 L220.18,379.33 L215.06,379.54 L215.06,397.17 Z" fill="url(#af-grad)" stroke="rgba(59,130,246,0.35)" stroke-width="0.8" stroke-linejoin="round"/>
  <path d="M24.69,165.43 L19.95,158.57 L27.77,148.15 L35.8,147.28 L48.31,159.25 L51.73,172.39 L24.88,172.74 L24.02,168.11 L39.61,165.97 L24.69,165.43 Z" fill="url(#af-grad)" stroke="rgba(59,130,246,0.35)" stroke-width="0.8" stroke-linejoin="round"/>
  <path d="M51.73,172.39 L48.31,159.25 L50.94,154.59 L82.8,153.91 L78.04,96.79 L86.0,96.68 L127.96,128.59 L128.02,132.43 L133.79,131.84 L133.81,145.75 L130.52,153.51 L106.05,157.1 L90.77,166.17 L84.45,176.79 L83.5,184.9 L69.84,185.9 L64.14,173.2 L58.74,176.0 L51.73,172.39 Z" fill="url(#af-grad)" stroke="rgba(59,130,246,0.35)" stroke-width="0.8" stroke-linejoin="round"/>
  <path d="M22.87,120.7 L44.37,118.72 L44.65,106.89 L49.53,106.35 L49.36,90.89 L66.43,91.21 L66.44,82.06 L86.0,96.68 L78.04,96.79 L82.8,153.91 L50.94,154.59 L48.31,159.25 L35.8,147.28 L25.99,150.08 L26.96,126.18 L22.87,120.7 Z" fill="url(#af-grad)" stroke="rgba(59,130,246,0.35)" stroke-width="0.8" stroke-linejoin="round"/>
  <path d="M125.6,209.74 L121.3,210.45 L120.26,192.41 L115.62,184.3 L119.13,177.79 L126.41,173.64 L131.34,182.7 L125.76,196.16 L125.6,209.74 Z" fill="url(#af-grad)" stroke="rgba(59,130,246,0.35)" stroke-width="0.8" stroke-linejoin="round"/>
  <path d="M188.83,109.44 L190.1,118.83 L194.3,124.39 L190.89,147.11 L184.26,152.8 L182.01,160.76 L184.16,166.89 L187.5,167.02 L185.34,172.14 L179.64,165.42 L175.57,168.8 L168.75,166.68 L158.48,170.07 L139.9,163.79 L132.96,165.81 L130.38,177.11 L126.41,173.64 L122.8,175.42 L122.92,171.29 L116.93,169.92 L113.55,157.37 L130.52,153.51 L133.81,145.75 L133.79,131.84 L174.0,105.76 L185.15,111.69 L188.83,109.44 Z" fill="url(#af-grad)" stroke="rgba(59,130,246,0.35)" stroke-width="0.8" stroke-linejoin="round"/>
  <path d="M125.6,209.74 L125.76,196.16 L130.87,186.76 L130.74,171.72 L134.32,164.51 L158.48,170.07 L168.75,166.68 L175.57,168.8 L179.64,165.42 L187.4,174.55 L172.68,205.38 L169.11,207.41 L164.22,205.03 L159.61,208.62 L155.8,218.72 L142.27,221.8 L134.09,209.67 L125.6,209.74 Z" fill="url(#af-grad)" stroke="rgba(59,130,246,0.35)" stroke-width="0.8" stroke-linejoin="round"/>
  <path d="M186.98,169.87 L192.03,187.25 L185.29,187.01 L184.16,189.86 L191.87,201.08 L187.19,209.94 L186.89,218.96 L194.09,229.35 L194.49,237.11 L186.16,234.09 L161.78,233.75 L162.54,228.99 L155.74,220.39 L157.14,214.45 L164.22,205.03 L169.11,207.41 L172.68,205.38 L186.56,177.64 L186.98,169.87 Z" fill="url(#af-grad)" stroke="rgba(59,130,246,0.35)" stroke-width="0.8" stroke-linejoin="round"/>
  <path d="M116.28,181.12 L120.26,192.41 L121.3,210.45 L117.11,211.74 L111.34,182.87 L116.28,181.12 Z" fill="url(#af-grad)" stroke="rgba(59,130,246,0.35)" stroke-width="0.8" stroke-linejoin="round"/>
  <path d="M111.72,180.99 L117.11,211.74 L101.38,219.1 L96.75,217.38 L94.73,209.79 L98.28,197.9 L96.31,181.33 L111.72,180.99 Z" fill="url(#af-grad)" stroke="rgba(59,130,246,0.35)" stroke-width="0.8" stroke-linejoin="round"/>
  <path d="M69.84,185.9 L79.33,183.98 L89.08,189.49 L96.9,189.3 L98.28,197.9 L94.73,209.79 L96.75,217.38 L87.42,216.33 L71.5,221.19 L72.24,213.07 L66.87,208.48 L70.87,195.75 L69.84,185.9 Z" fill="url(#af-grad)" stroke="rgba(59,130,246,0.35)" stroke-width="0.8" stroke-linejoin="round"/>
  <path d="M40.36,171.52 L58.74,176.0 L64.14,173.2 L69.84,185.9 L70.87,195.75 L68.54,201.11 L63.71,203.37 L60.87,195.96 L56.97,197.12 L53.79,186.87 L46.99,188.13 L42.72,193.77 L32.92,180.86 L40.14,176.2 L40.36,171.52 Z" fill="url(#af-grad)" stroke="rgba(59,130,246,0.35)" stroke-width="0.8" stroke-linejoin="round"/>
  <path d="M24.88,172.74 L40.36,171.52 L40.14,176.2 L32.92,180.86 L24.88,172.74 Z" fill="url(#af-grad)" stroke="rgba(59,130,246,0.35)" stroke-width="0.8" stroke-linejoin="round"/>
  <path d="M67.72,201.12 L66.87,208.48 L72.24,213.07 L71.5,221.19 L52.12,206.56 L58.4,196.77 L60.87,195.96 L63.71,203.37 L67.72,201.12 Z" fill="url(#af-grad)" stroke="rgba(59,130,246,0.35)" stroke-width="0.8" stroke-linejoin="round"/>
  <path d="M42.72,193.77 L46.99,188.13 L53.79,186.87 L58.4,196.77 L52.12,206.56 L44.26,200.44 L42.72,193.77 Z" fill="url(#af-grad)" stroke="rgba(59,130,246,0.35)" stroke-width="0.8" stroke-linejoin="round"/>
  <path d="M83.5,184.9 L89.34,167.64 L106.05,157.1 L113.55,157.37 L116.93,169.92 L122.92,171.29 L121.67,177.23 L116.28,181.12 L96.31,181.33 L96.9,189.3 L89.08,189.49 L83.5,184.9 Z" fill="url(#af-grad)" stroke="rgba(59,130,246,0.35)" stroke-width="0.8" stroke-linejoin="round"/>
  <path d="M253.95,215.93 L238.53,216.69 L230.38,219.1 L228.11,223.21 L212.83,217.16 L207.56,226.38 L200.69,225.03 L194.87,233.85 L186.79,214.62 L191.05,202.72 L205.02,199.88 L209.42,193.29 L220.8,190.31 L230.49,180.24 L234.08,186.6 L233.59,193.46 L253.95,215.93 Z" fill="url(#af-grad)" stroke="rgba(59,130,246,0.35)" stroke-width="0.8" stroke-linejoin="round"/>
  <path d="M207.56,226.38 L203.32,250.12 L196.92,258.07 L194.83,268.91 L187.43,277.58 L177.23,274.36 L173.56,277.98 L169.29,271.59 L173.25,268.25 L171.29,264.26 L176.99,259.32 L184.36,262.48 L186.61,255.61 L183.59,247.32 L185.84,240.32 L180.67,239.61 L179.59,233.86 L194.49,237.11 L200.69,225.03 L207.56,226.38 Z" fill="url(#af-grad)" stroke="rgba(59,130,246,0.35)" stroke-width="0.8" stroke-linejoin="round"/>
  <path d="M170.24,233.89 L178.95,233.53 L180.67,239.61 L185.84,240.32 L183.59,247.32 L186.61,255.61 L184.36,262.48 L176.99,259.32 L171.29,264.26 L173.25,268.25 L169.29,271.59 L157.35,254.26 L160.96,241.45 L170.28,241.16 L170.24,233.89 Z" fill="url(#af-grad)" stroke="rgba(59,130,246,0.35)" stroke-width="0.8" stroke-linejoin="round"/>
  <path d="M161.78,233.75 L170.24,233.89 L170.28,241.16 L160.96,241.45 L161.78,233.75 Z" fill="url(#af-grad)" stroke="rgba(59,130,246,0.35)" stroke-width="0.8" stroke-linejoin="round"/>
  <path d="M271.45,297.93 L284.4,306.01 L284.79,322.67 L281.58,330.39 L284.31,331.95 L268.53,336.93 L269.03,341.23 L262.13,344.46 L252.23,355.91 L232.32,353.4 L225.42,344.69 L225.66,325.47 L236.48,325.54 L235.94,313.56 L245.51,318.74 L252.85,317.68 L262.06,327.59 L266.04,327.64 L265.6,321.12 L259.14,318.79 L259.54,302.91 L262.42,298.34 L271.45,297.93 Z" fill="url(#af-grad)" stroke="rgba(59,130,246,0.35)" stroke-width="0.8" stroke-linejoin="round"/>
  <path d="M281.95,303.31 L287.05,304.44 L289.86,308.93 L291.31,329.59 L297.17,335.81 L297.61,343.58 L293.78,349.04 L290.38,345.31 L290.79,335.83 L281.58,330.39 L285.73,311.13 L281.95,303.31 Z" fill="url(#af-grad)" stroke="rgba(59,130,246,0.35)" stroke-width="0.8" stroke-linejoin="round"/>
  <path d="M291.31,317.14 L306.45,317.44 L321.25,309.87 L323.63,336.3 L316.75,348.56 L306.14,353.79 L292.49,367.06 L296.53,380.99 L295.99,393.27 L283.27,400.73 L280.99,402.97 L282.32,409.1 L278.37,409.05 L273.8,381.97 L281.43,370.21 L282.41,348.51 L269.36,343.48 L268.53,336.93 L284.31,331.95 L290.79,335.83 L290.38,345.31 L293.78,349.04 L297.61,343.58 L297.17,335.81 L291.31,329.59 L291.31,317.14 Z" fill="url(#af-grad)" stroke="rgba(59,130,246,0.35)" stroke-width="0.8" stroke-linejoin="round"/>
  <path d="M278.37,409.05 L274.27,412.38 L271.17,409.11 L273.03,402.99 L277.16,403.67 L278.37,409.05 Z" fill="url(#af-grad)" stroke="rgba(59,130,246,0.35)" stroke-width="0.8" stroke-linejoin="round"/>
  <path d="M179.18,276.43 L174.95,282.53 L173.56,277.98 L177.23,274.36 L179.18,276.43 Z" fill="url(#af-grad)" stroke="rgba(59,130,246,0.35)" stroke-width="0.8" stroke-linejoin="round"/>
  <path d="M175.68,284.4 L196.5,283.06 L202.46,296.29 L210.49,295.81 L216.08,289.49 L224.59,291.59 L226.81,314.51 L236.49,315.43 L236.48,325.54 L225.66,325.47 L225.42,344.69 L232.32,353.4 L222.76,355.87 L206.57,352.12 L184.7,352.8 L181.6,350.07 L172.62,352.07 L174.91,334.84 L183.04,315.8 L175.68,284.4 Z" fill="url(#af-grad)" stroke="rgba(59,130,246,0.35)" stroke-width="0.8" stroke-linejoin="round"/>
  <path d="M270.04,262.13 L271.51,267.84 L264.17,274.73 L262.53,264.7 L270.04,262.13 Z" fill="url(#af-grad)" stroke="rgba(59,130,246,0.35)" stroke-width="0.8" stroke-linejoin="round"/>
  <path d="M369.23,322.88 L373.56,342.43 L369.9,342.45 L370.43,349.49 L356.5,398.22 L347.73,402.2 L340.61,398.5 L337.0,385.14 L337.45,376.44 L342.81,364.96 L340.21,352.72 L342.72,345.51 L352.42,342.88 L359.67,335.71 L367.41,320.29 L369.23,322.88 Z" fill="url(#af-grad)" stroke="rgba(59,130,246,0.35)" stroke-width="0.8" stroke-linejoin="round"/>
  <path d="M24.69,165.43 L39.61,165.97 L24.02,168.11 L24.69,165.43 Z" fill="url(#af-grad)" stroke="rgba(59,130,246,0.35)" stroke-width="0.8" stroke-linejoin="round"/>
  <path d="M160.91,64.47 L158.69,53.62 L151.19,46.13 L150.73,41.58 L153.93,38.21 L155.39,24.36 L161.05,21.93 L164.69,22.65 L164.54,25.71 L168.95,23.48 L166.72,27.6 L167.8,37.13 L164.38,40.17 L171.34,47.38 L171.05,52.02 L163.34,58.01 L163.44,63.07 L160.91,64.47 Z" fill="url(#af-grad)" stroke="rgba(59,130,246,0.35)" stroke-width="0.8" stroke-linejoin="round"/>
  <path d="M66.44,82.06 L66.49,73.33 L84.34,66.32 L92.41,60.91 L92.63,56.44 L104.8,52.66 L100.32,35.11 L105.32,31.8 L119.23,26.42 L155.39,24.36 L153.93,38.21 L150.73,41.58 L151.19,46.13 L158.69,53.62 L162.59,69.8 L160.06,89.92 L165.18,100.28 L167.61,99.17 L174.0,105.76 L141.12,129.14 L128.02,132.43 L127.96,128.59 L66.44,82.06 Z" fill="url(#af-grad)" stroke="rgba(59,130,246,0.35)" stroke-width="0.8" stroke-linejoin="round"/>
  <path d="M301.03,160.43 L303.23,145.12 L311.33,138.83 L315.78,151.36 L335.62,170.83 L331.83,171.79 L319.74,159.84 L308.71,157.18 L307.09,161.69 L301.03,160.43 Z" fill="url(#af-grad)" stroke="rgba(59,130,246,0.35)" stroke-width="0.8" stroke-linejoin="round"/>
  <path d="M100.32,35.11 L104.8,52.66 L92.63,56.44 L92.41,60.91 L84.34,66.32 L66.49,73.33 L65.87,83.72 L52.36,85.15 L46.59,97.92 L39.37,104.44 L34.9,117.67 L23.09,118.14 L36.51,88.95 L61.86,66.73 L60.56,59.21 L66.58,46.75 L75.65,41.5 L80.76,31.53 L100.32,35.11 Z" fill="url(#af-grad)" stroke="rgba(59,130,246,0.35)" stroke-width="0.8" stroke-linejoin="round"/>
  <path d="M303.3,114.65 L241.6,114.65 L240.04,66.06 L242.46,56.85 L261.95,61.07 L272.68,56.93 L277.79,60.69 L289.78,58.96 L293.2,69.34 L289.2,79.48 L279.67,67.77 L297.2,103.01 L296.34,107.99 L303.3,114.65 Z" fill="url(#af-grad)" stroke="rgba(59,130,246,0.35)" stroke-width="0.8" stroke-linejoin="round"/>
  <path d="M241.6,114.65 L241.6,126.72 L235.62,126.73 L235.56,129.27 L194.08,106.14 L185.15,111.69 L167.61,99.17 L165.18,100.28 L160.06,89.92 L163.34,58.01 L171.05,52.02 L171.34,47.38 L190.88,52.64 L193.31,58.01 L210.85,64.72 L215.88,60.37 L214.67,55.74 L220.04,49.98 L241.19,54.85 L241.6,114.65 Z" fill="url(#af-grad)" stroke="rgba(59,130,246,0.35)" stroke-width="0.8" stroke-linejoin="round"/>
  <path d="M360.1,199.21 L345.41,217.34 L338.64,217.6 L329.25,223.88 L323.6,221.84 L317.31,226.88 L299.63,220.68 L292.08,207.72 L282.96,200.52 L287.49,196.93 L289.74,183.34 L298.09,171.57 L301.03,160.43 L307.09,161.69 L308.71,157.18 L319.74,159.84 L327.91,166.29 L331.83,171.79 L328.73,180.79 L334.04,181.54 L332.91,183.68 L338.73,192.07 L360.1,199.21 Z" fill="url(#af-grad)" stroke="rgba(59,130,246,0.35)" stroke-width="0.8" stroke-linejoin="round"/>
  <path d="M331.83,171.79 L336.85,172.7 L334.04,181.54 L328.73,180.79 L331.83,171.79 Z" fill="url(#af-grad)" stroke="rgba(59,130,246,0.35)" stroke-width="0.8" stroke-linejoin="round"/>
  <path d="M287.9,253.29 L265.41,255.65 L266.95,243.94 L273.71,234.23 L271.62,233.42 L274.08,224.71 L285.23,224.66 L288.43,221.88 L290.89,226.07 L293.79,236.04 L287.85,246.89 L287.9,253.29 Z" fill="url(#af-grad)" stroke="rgba(59,130,246,0.35)" stroke-width="0.8" stroke-linejoin="round"/>
  <path d="M269.78,254.41 L271.54,261.37 L262.53,264.7 L263.92,257.34 L269.78,254.41 Z" fill="url(#af-grad)" stroke="rgba(59,130,246,0.35)" stroke-width="0.8" stroke-linejoin="round"/>

  <!-- Scan lines clipped to continent -->
  <g clip-path="url(#af-clip)" opacity="0.06">
    <line x1="0" y1="20" x2="400" y2="20" stroke="#3b82f6" stroke-width="1"/>
    <line x1="0" y1="42" x2="400" y2="42" stroke="#3b82f6" stroke-width="1"/>
    <line x1="0" y1="64" x2="400" y2="64" stroke="#3b82f6" stroke-width="1"/>
    <line x1="0" y1="86" x2="400" y2="86" stroke="#3b82f6" stroke-width="1"/>
    <line x1="0" y1="108" x2="400" y2="108" stroke="#3b82f6" stroke-width="1"/>
    <line x1="0" y1="130" x2="400" y2="130" stroke="#3b82f6" stroke-width="1"/>
    <line x1="0" y1="152" x2="400" y2="152" stroke="#3b82f6" stroke-width="1"/>
    <line x1="0" y1="174" x2="400" y2="174" stroke="#3b82f6" stroke-width="1"/>
    <line x1="0" y1="196" x2="400" y2="196" stroke="#3b82f6" stroke-width="1"/>
    <line x1="0" y1="218" x2="400" y2="218" stroke="#3b82f6" stroke-width="1"/>
    <line x1="0" y1="240" x2="400" y2="240" stroke="#3b82f6" stroke-width="1"/>
    <line x1="0" y1="262" x2="400" y2="262" stroke="#3b82f6" stroke-width="1"/>
    <line x1="0" y1="284" x2="400" y2="284" stroke="#3b82f6" stroke-width="1"/>
    <line x1="0" y1="306" x2="400" y2="306" stroke="#3b82f6" stroke-width="1"/>
    <line x1="0" y1="328" x2="400" y2="328" stroke="#3b82f6" stroke-width="1"/>
    <line x1="0" y1="350" x2="400" y2="350" stroke="#3b82f6" stroke-width="1"/>
    <line x1="0" y1="372" x2="400" y2="372" stroke="#3b82f6" stroke-width="1"/>
    <line x1="0" y1="394" x2="400" y2="394" stroke="#3b82f6" stroke-width="1"/>
    <line x1="0" y1="416" x2="400" y2="416" stroke="#3b82f6" stroke-width="1"/>
    <line x1="0" y1="438" x2="400" y2="438" stroke="#3b82f6" stroke-width="1"/>
    <line x1="0" y1="460" x2="400" y2="460" stroke="#3b82f6" stroke-width="1"/>
  </g>

  <!-- Ghana pulse marker -->
  <circle cx="106.4" cy="199.53" r="4" fill="rgba(59,130,246,0.9)" filter="url(#af-glow)"/>
  <circle cx="106.4" cy="199.53" r="4" fill="none" stroke="rgba(59,130,246,0.75)" stroke-width="1.5">
    <animate attributeName="r" from="5" to="18" dur="2.2s" repeatCount="indefinite"/>
    <animate attributeName="opacity" from="0.8" to="0" dur="2.2s" repeatCount="indefinite"/>
  </circle>
  <text x="114.4" y="194.53" font-size="8" font-family="monospace" fill="rgba(59,130,246,0.85)">GHA</text>

  <!-- Data dots -->
  <circle cx="280.6" cy="245.7" r="2.0" fill="rgba(6,182,212,0.5)"/>
  <circle cx="293.6" cy="255.4" r="2.0" fill="rgba(6,182,212,0.45)"/>
  <circle cx="207.8" cy="221.0" r="1.5" fill="rgba(34,197,94,0.5)"/>
  <circle cx="257.2" cy="326.1" r="1.5" fill="rgba(245,158,11,0.45)"/>
</svg>